{
  "accessors": [
    {
      "bufferView": 2,
      "componentType": 5126,
      "count": 65532,
      "max": [
        0.5,
        0.5,
        0.19723699986934662
      ],
      "min": [
        -0.5,
        -0.5,
        0.009202999994158745
      ],
      "type": "VEC3"
    },
    {
      "bufferView": 2,
      "byteOffset": 786384,
      "componentType": 5126,
      "count": 65532,
      "max": [
        0.9078696966171265,
        0.8611739277839661,
        1.0
      ],
      "min": [
        -0.9080246090888977,
        -0.8851895332336426,
        0.33696043491363525
      ],
      "type": "VEC3"
    },
    {
      "bufferView": 3,
      "componentType": 5126,
      "count": 65532,
      "max": [
        1.0,
        9.765267168404534e-05,
        0.9100980758666992,
        1.0
      ],
      "min": [
        0.3902815580368042,
        -6.511123501695693e-05,
        -0.9206955432891846,
        1.0
      ],
      "type": "VEC4"
    },
    {
      "bufferView": 1,
      "componentType": 5126,
      "count": 65532,
      "max": [
        1.0,
        1.0
      ],
      "min": [
        0.0,
        0.0
      ],
      "type": "VEC2"
    },
    {
      "bufferView": 0,
      "componentType": 5125,
      "count": 318096,
      "type": "SCALAR"
    },
    {
      "bufferView": 2,
      "byteOffset": 1572768,
      "componentType": 5126,
      "count": 65532,
      "max": [
        0.5,
        0.08512700349092484,
        0.19410300254821777
      ],
      "min": [
        -0.4980430006980896,
        -0.5,
        0.006310000084340572
      ],
      "type": "VEC3"
    },
    {
      "bufferView": 2,
      "byteOffset": 2359152,
      "componentType": 5126,
      "count": 65532,
      "max": [
        0.9213220477104187,
        0.8727818727493286,
        0.9999999403953552
      ],
      "min": [
        -0.9180309772491455,
        -0.9258576035499573,
        0.3403831124305725
      ],
      "type": "VEC3"
    },
    {
      "bufferView": 3,
      "byteOffset": 1048512,
      "componentType": 5126,
      "count": 65532,
      "max": [
        1.0,
        0.00010185040446231142,
        0.9250035285949707,
        1.0
      ],
      "min": [
        0.36424702405929565,
        -6.55644980724901e-05,
        -0.9313024282455444,
        1.0
      ],
      "type": "VEC4"
    },
    {
      "bufferView": 1,
      "byteOffset": 524256,
      "componentType": 5126,
      "count": 65532,
      "max": [
        1.0,
        0.5851269960403442
      ],
      "min": [
        0.0019570000004023314,
        0.0
      ],
      "type": "VEC2"
    },
    {
      "bufferView": 0,
      "byteOffset": 1272384,
      "componentType": 5125,
      "count": 329892,
      "type": "SCALAR"
    },
    {
      "bufferView": 2,
      "byteOffset": 3145536,
      "componentType": 5126,
      "count": 65532,
      "max": [
        0.5,
        -0.16144800186157227,
        0.15874800086021423
      ],
      "min": [
        -0.4941290020942688,
        -0.5,
        0.006397999823093414
      ],
      "type": "VEC3"
    },
    {
      "bufferView": 2,
      "byteOffset": 3931920,
      "componentType": 5126,
      "count": 65532,
      "max": [
        0.8943970799446106,
        0.9543687701225281,
        0.9999998807907104
      ],
      "min": [
        -0.9005643129348755,
        -0.8192619681358337,
        0.24548092484474182
      ],
      "type": "VEC3"
    },
    {
      "bufferView": 3,
      "byteOffset": 2097024,
      "componentType": 5126,
      "count": 65532,
      "max": [
        1.0,
        0.0001374189741909504,
        0.9529345631599426,
        1.0
      ],
      "min": [
        0.3031761944293976,
        -9.7882111731451e-05,
        -0.9311719536781311,
        1.0
      ],
      "type": "VEC4"
    },
    {
      "bufferView": 1,
      "byteOffset": 1048512,
      "componentType": 5126,
      "count": 65532,
      "max": [
        1.0,
        0.33855199813842773
      ],
      "min": [
        0.00587099976837635,
        0.0
      ],
      "type": "VEC2"
    },
    {
      "bufferView": 0,
      "byteOffset": 2591952,
      "componentType": 5125,
      "count": 344880,
      "type": "SCALAR"
    },
    {
      "bufferView": 2,
      "byteOffset": 4718304,
      "componentType": 5126,
      "count": 65532,
      "max": [
        0.5,
        0.4960860013961792,
        0.20351000130176544
      ],
      "min": [
        -0.4980430006980896,
        -0.3258320093154907,
        0.010103999637067318
      ],
      "type": "VEC3"
    },
    {
      "bufferView": 2,
      "byteOffset": 5504688,
      "componentType": 5126,
      "count": 65532,
      "max": [
        0.92573481798172,
        0.8860539197921753,
        1.0
      ],
      "min": [
        -0.9533490538597107,
        -0.8886916637420654,
        0.25731274485588074
      ],
      "type": "VEC3"
    },
    {
      "bufferView": 3,
      "byteOffset": 3145536,
      "componentType": 5126,
      "count": 65532,
      "max": [
        1.0,
        0.00011288212408544496,
        0.9566469788551331,
        1.0
      ],
      "min": [
        0.29125022888183594,
        -9.288047294830903e-05,
        -0.9318757653236389,
        1.0
      ],
      "type": "VEC4"
    },
    {
      "bufferView": 1,
      "byteOffset": 1572768,
      "componentType": 5126,
      "count": 65532,
      "max": [
        1.0,
        0.9960860013961792
      ],
      "min": [
        0.0019570000004023314,
        0.17416800558567047
      ],
      "type": "VEC2"
    },
    {
      "bufferView": 0,
      "byteOffset": 3971472,
      "componentType": 5125,
      "count": 346896,
      "type": "SCALAR"
    },
    {
      "bufferView": 2,
      "byteOffset": 6291072,
      "componentType": 5126,
      "count": 46997,
      "max": [
        0.5,
        0.4980430006980896,
        0.19832000136375427
      ],
      "min": [
        -0.4980430006980896,
        0.20058700442314148,
        0.014816000126302242
      ],
      "type": "VEC3"
    },
    {
      "bufferView": 2,
      "byteOffset": 6855036,
      "componentType": 5126,
      "count": 46997,
      "max": [
        0.9078696966171265,
        0.8818401098251343,
        0.9999995231628418
      ],
      "min": [
        -0.9184640645980835,
        -0.91115802526474,
        0.3268413543701172
      ],
      "type": "VEC3"
    },
    {
      "bufferView": 3,
      "byteOffset": 4194048,
      "componentType": 5126,
      "count": 46997,
      "max": [
        1.0,
        9.738910739542916e-05,
        0.9272801876068115,
        1.0
      ],
      "min": [
        0.3627776503562927,
        -6.893186218803748e-05,
        -0.9318757653236389,
        1.0
      ],
      "type": "VEC4"
    },
    {
      "bufferView": 1,
      "byteOffset": 2097024,
      "componentType": 5126,
      "count": 46997,
      "max": [
        1.0,
        0.9980430006980896
      ],
      "min": [
        0.0019570000004023314,
        0.7005869746208191
      ],
      "type": "VEC2"
    },
    {
      "bufferView": 0,
      "byteOffset": 5359056,
      "componentType": 5125,
      "count": 226962,
      "type": "SCALAR"
    }
  ],
  "asset": {
    "extras": {
      "author": "aqsa_g (https://sketchfab.com/aqsa_g)",
      "license": "CC-BY-4.0 (http://creativecommons.org/licenses/by/4.0/)",
      "source": "https://sketchfab.com/3d-models/fantasy-valley-terrain-06e910dc64fa4b21943d8b02686e1a67",
      "title": "Fantasy Valley Terrain"
    },
    "generator": "Sketchfab-10.59.0",
    "version": "2.0"
  },
  "bufferViews": [
    {
      "buffer": 0,
      "byteLength": 6266904,
      "name": "floatBufferViews",
      "target": 34963
    },
    {
      "buffer": 0,
      "byteLength": 2473000,
      "byteOffset": 6266904,
      "byteStride": 8,
      "name": "floatBufferViews",
      "target": 34962
    },
    {
      "buffer": 0,
      "byteLength": 7419000,
      "byteOffset": 8739904,
      "byteStride": 12,
      "name": "floatBufferViews",
      "target": 34962
    },
    {
      "buffer": 0,
      "byteLength": 4946000,
      "byteOffset": 16158904,
      "byteStride": 16,
      "name": "floatBufferViews",
      "target": 34962
    }
  ],
  "buffers": [
    {
      "byteLength": 21104904,
      "uri": "scene.bin"
    }
  ],
  "images": [
    {
      "uri": "textures/material_0_baseColor.png"
    },
    {
      "uri": "textures/material_0_normal.png"
    }
  ],
  "materials": [
    {
      "doubleSided": true,
      "name": "material_0",
      "normalTexture": {
        "index": 1
      },
      "pbrMetallicRoughness": {
        "baseColorTexture": {
          "index": 0
        },
        "metallicFactor": 0.0
      }
    }
  ],
  "meshes": [
    {
      "name": "Object_0",
      "primitives": [
        {
          "attributes": {
            "NORMAL": 1,
            "POSITION": 0,
            "TANGENT": 2,
            "TEXCOORD_0": 3
          },
          "indices": 4,
          "material": 0,
          "mode": 4
        }
      ]
    },
    {
      "name": "Object_1",
      "primitives": [
        {
          "attributes": {
            "NORMAL": 6,
            "POSITION": 5,
            "TANGENT": 7,
            "TEXCOORD_0": 8
          },
          "indices": 9,
          "material": 0,
          "mode": 4
        }
      ]
    },
    {
      "name": "Object_2",
      "primitives": [
        {
          "attributes": {
            "NORMAL": 11,
            "POSITION": 10,
            "TANGENT": 12,
            "TEXCOORD_0": 13
          },
          "indices": 14,
          "material": 0,
          "mode": 4
        }
      ]
    },
    {
      "name": "Object_3",
      "primitives": [
        {
          "attributes": {
            "NORMAL": 16,
            "POSITION": 15,
            "TANGENT": 17,
            "TEXCOORD_0": 18
          },
          "indices": 19,
          "material": 0,
          "mode": 4
        }
      ]
    },
    {
      "name": "Object_4",
      "primitives": [
        {
          "attributes": {
            "NORMAL": 21,
            "POSITION": 20,
            "TANGENT": 22,
            "TEXCOORD_0": 23
          },
          "indices": 24,
          "material": 0,
          "mode": 4
        }
      ]
    }
  ],
  "nodes": [
    {
      "children": [
        1
      ],
      "matrix": [
        1.0,
        0.0,
        0.0,
        0.0,
        0.0,
        2.220446049250313e-16,
        -1.0,
        0.0,
        0.0,
        1.0,
        2.220446049250313e-16,
        0.0,
        0.0,
        0.0,
        0.0,
        1.0
      ],
      "name": "Sketchfab_model"
    },
    {
      "children": [
        2,
        3,
        4,
        5,
        6
      ],
      "name": "SketchUp_Fantasy_Valley_2.obj.cleaner.materialmerger.gles"
    },
    {
      "mesh": 0,
      "name": "Object_2"
    },
    {
      "mesh": 1,
      "name": "Object_3"
    },
    {
      "mesh": 2,
      "name": "Object_4"
    },
    {
      "mesh": 3,
      "name": "Object_5"
    },
    {
      "mesh": 4,
      "name": "Object_6"
    }
  ],
  "samplers": [
    {
      "magFilter": 9729,
      "minFilter": 9987,
      "wrapS": 10497,
      "wrapT": 10497
    }
  ],
  "scene": 0,
  "scenes": [
    {
      "name": "Sketchfab_Scene",
      "nodes": [
        0
      ]
    }
  ],
  "textures": [
    {
      "sampler": 0,
      "source": 0
    },
    {
      "sampler": 0,
      "source": 1
    }
  ]
}
